<svg width="80" height="80" viewBox="0 0 80 80" fill="none" xmlns="http://www.w3.org/2000/svg">
<path d="M39.96 0C17.88 0 0 17.92 0 40C0 62.08 17.88 80 39.96 80C62.08 80 80 62.08 80 40C80 17.92 62.08 0 39.96 0ZM40 72C22.32 72 8 57.68 8 40C8 22.32 22.32 8 40 8C57.68 8 72 22.32 72 40C72 57.68 57.68 72 40 72Z" fill="#FF6738"/>
<path d="M28.2263 55.6208C30.6982 51.1661 35.4498 48.151 40.9055 48.151C46.3612 48.151 51.1128 51.1661 53.5847 55.6208" stroke="black" stroke-width="7.24528"/>
<circle cx="28.2263" cy="28.2266" r="5.43396" fill="black"/>
<circle cx="53.5847" cy="28.2266" r="5.43396" fill="black"/>
</svg>
