<svg width="487" height="564" viewBox="0 0 487 564" fill="none" xmlns="http://www.w3.org/2000/svg">
<path d="M483.127 292.137L409.537 334.742C407.661 335.828 405.345 335.818 403.479 334.715L88.0521 148.348C84.0524 145.985 79 148.868 79 153.514V403.154C79 407.763 83.9799 410.651 87.9798 408.362L163.544 365.124C167.539 362.839 167.579 357.092 163.617 354.751L142.448 342.242C140.621 341.162 139.5 339.198 139.5 337.076V256.062C139.5 251.406 144.573 248.524 148.572 250.909L338.658 364.229C342.607 366.583 342.55 372.32 338.556 374.596L8.97037 562.389C4.97047 564.668 0 561.779 0 557.176V6.51971C0 1.87281 5.05484 -1.01025 9.05451 1.35541L483.175 281.78C487.124 284.116 487.097 289.839 483.127 292.137Z" fill="black"/>
</svg>
