<svg width="200" height="236" viewBox="0 0 200 236" fill="none" xmlns="http://www.w3.org/2000/svg">
<path d="M198.768 122.185L168.492 140.036C167.72 140.491 166.767 140.487 166 140.025L36.2264 61.9408C34.5809 60.9508 32.5022 62.1587 32.5022 64.1053V168.699C32.5022 170.63 34.551 171.84 36.1967 170.881L67.2854 152.765C68.929 151.808 68.9454 149.4 67.3154 148.419L58.606 143.178C57.8544 142.726 57.3932 141.903 57.3932 141.014V107.071C57.3932 105.12 59.4803 103.913 61.1256 104.912L139.331 152.391C140.956 153.377 140.932 155.78 139.289 156.734L3.69059 235.415C2.04495 236.37 0 235.16 0 233.231V2.51771C0 0.570754 2.07966 -0.637189 3.72521 0.353974L198.788 117.846C200.413 118.825 200.402 121.223 198.768 122.185Z" fill="#FF6738"/>
</svg>
