<?xml version="1.0" standalone="no"?>
<!DOCTYPE svg PUBLIC "-//W3C//DTD SVG 20010904//EN"
 "http://www.w3.org/TR/2001/REC-SVG-20010904/DTD/svg10.dtd">
<svg version="1.0" xmlns="http://www.w3.org/2000/svg"
 width="1000.000000pt" height="1000.000000pt" viewBox="0 0 1000.000000 1000.000000"
 preserveAspectRatio="xMidYMid meet">
<metadata>
Created by potrace 1.16, written by Peter Selinger 2001-2019
</metadata>
<g transform="translate(0.000000,1000.000000) scale(0.100000,-0.100000)"
fill="#000000" stroke="none">
<path d="M455 9708 c-3 -7 -4 -382 -3 -833 l3 -820 257 -3 258 -2 2 -288 3
-287 287 -3 288 -2 2 -298 3 -297 267 -3 268 -2 2 -258 3 -257 307 -3 308 -2
2 -283 3 -282 283 -3 282 -2 0 -305 0 -305 280 0 280 0 0 -275 0 -275 270 0
270 0 0 -270 0 -270 310 0 310 0 0 -290 0 -290 -310 0 -310 0 0 -300 0 -300
-270 0 -270 0 0 -545 0 -545 580 0 580 0 0 270 0 270 580 0 580 0 0 275 0 275
275 0 275 0 2 -272 3 -273 293 -3 292 -2 0 -270 0 -270 270 0 270 0 0 -575 0
-575 860 0 860 0 0 845 0 845 -547 0 -548 0 3 252 c1 139 0 263 -3 275 l-5 23
-310 0 -310 0 -2 298 -3 297 -267 3 -268 2 0 290 0 290 270 0 270 0 0 545 0
545 315 0 315 0 0 590 0 590 -585 0 -585 0 0 -285 0 -285 -295 0 -295 0 0
-305 0 -305 -275 0 -275 0 0 305 0 305 -305 0 -305 0 -2 283 -3 282 -272 3
-273 2 -2 258 -3 257 -305 0 -305 0 -3 -257 -2 -258 310 0 310 0 0 -285 0
-285 275 0 275 0 0 -305 0 -305 305 0 305 0 0 -545 0 -545 -580 0 -580 0 0
270 0 270 -310 0 -310 0 0 275 0 275 -270 0 -270 0 0 305 0 305 -280 0 -280 0
0 285 0 285 -285 0 -285 0 0 260 0 260 -310 0 -310 0 0 300 0 300 -270 0 -270
0 0 290 0 290 -290 0 -290 0 0 550 0 550 560 0 560 0 0 -295 0 -295 310 0 310
0 0 -255 0 -255 285 0 285 0 0 -290 0 -290 280 0 280 0 0 -300 0 -300 270 0
270 0 -2 298 -3 297 -267 3 -268 2 0 290 0 290 -280 0 -280 0 0 255 0 255
-285 0 -285 0 -2 293 -3 292 -307 3 -308 2 -2 283 -3 282 -813 3 c-645 2 -814
0 -817 -10z"/>
</g>
</svg>
